<svg width="100" height="100" viewBox="0 0 100 100" xmlns="http://www.w3.org/2000/svg">
  <defs>
    <linearGradient id="logoGradient" x1="0%" y1="0%" x2="100%" y2="100%">
      <stop offset="0%" style="stop-color:#8B5CF6;stop-opacity:1" />
      <stop offset="50%" style="stop-color:#06B6D4;stop-opacity:1" />
      <stop offset="100%" style="stop-color:#EC4899;stop-opacity:1" />
    </linearGradient>
    <filter id="glow">
      <feGaussianBlur stdDeviation="3" result="coloredBlur"/>
      <feMerge> 
        <feMergeNode in="coloredBlur"/>
        <feMergeNode in="SourceGraphic"/>
      </feMerge>
    </filter>
  </defs>
  
  <!-- Background Circle -->
  <circle cx="50" cy="50" r="45" fill="url(#logoGradient)" filter="url(#glow)" opacity="0.9"/>
  
  <!-- Inner Circle -->
  <circle cx="50" cy="50" r="35" fill="none" stroke="white" stroke-width="2" opacity="0.3"/>
  
  <!-- Z Letter -->
  <path d="M30 35 L70 35 L70 40 L40 60 L70 60 L70 65 L30 65 L30 60 L60 40 L30 40 Z" 
        fill="white" 
        stroke="white" 
        stroke-width="1"
        filter="url(#glow)"/>
  
  <!-- Lock Icon (Security Symbol) -->
  <rect x="42" y="72" width="16" height="12" rx="2" fill="white" opacity="0.8"/>
  <path d="M45 72 L45 69 C45 66.8 46.8 65 49 65 L51 65 C53.2 65 55 66.8 55 69 L55 72" 
        fill="none" 
        stroke="white" 
        stroke-width="2" 
        opacity="0.8"/>
  
  <!-- Voting Box Icon -->
  <rect x="20" y="15" width="12" height="8" rx="1" fill="white" opacity="0.6"/>
  <rect x="22" y="17" width="8" height="1" fill="url(#logoGradient)"/>
  <rect x="22" y="19" width="6" height="1" fill="url(#logoGradient)"/>
  
  <!-- Blockchain Dots -->
  <circle cx="75" cy="25" r="3" fill="white" opacity="0.7"/>
  <circle cx="80" cy="30" r="2" fill="white" opacity="0.5"/>
  <circle cx="85" cy="35" r="2" fill="white" opacity="0.5"/>
  
  <!-- Connection Lines -->
  <line x1="75" y1="25" x2="80" y2="30" stroke="white" stroke-width="1" opacity="0.4"/>
  <line x1="80" y1="30" x2="85" y2="35" stroke="white" stroke-width="1" opacity="0.4"/>
</svg>